<svg width="68" height="39" viewBox="0 0 68 39" fill="none" xmlns="http://www.w3.org/2000/svg">
<path d="M63.1429 0.407471H4.85714C3.56895 0.407471 2.33351 0.808151 1.42262 1.52137C0.511733 2.23458 0 3.20191 0 4.21055V34.6352C0 35.6438 0.511733 36.6112 1.42262 37.3244C2.33351 38.0376 3.56895 38.4383 4.85714 38.4383H63.1429C64.4311 38.4383 65.6665 38.0376 66.5774 37.3244C67.4883 36.6112 68 35.6438 68 34.6352V4.21055C68 3.20191 67.4883 2.23458 66.5774 1.52137C65.6665 0.808151 64.4311 0.407471 63.1429 0.407471ZM57.8 4.21055L34 17.103L10.2 4.21055H57.8ZM4.85714 34.6352V5.94095L32.6157 20.9821C33.0222 21.203 33.5052 21.3213 34 21.3213C34.4948 21.3213 34.9778 21.203 35.3843 20.9821L63.1429 5.94095V34.6352H4.85714Z" fill="black"/>
</svg>
