<svg width="64" height="59" viewBox="0 0 64 59" fill="none" xmlns="http://www.w3.org/2000/svg">
<path d="M31.9829 4.46289C26.1534 4.46913 20.5646 6.57429 16.4425 10.3166C12.3204 14.0588 10.0015 19.1327 9.99465 24.425C9.98767 28.75 11.5438 32.9575 14.4243 36.4023C14.4243 36.4023 15.024 37.1191 15.1219 37.2226L31.9829 55.2756L48.852 37.2135C48.9399 37.1173 49.5416 36.4023 49.5416 36.4023L49.5436 36.3969C52.4227 32.9536 53.9781 28.748 53.9712 24.425C53.9644 19.1327 51.6455 14.0588 47.5234 10.3166C43.4013 6.57429 37.8125 4.46913 31.9829 4.46289ZM31.9829 31.684C30.4015 31.684 28.8556 31.2582 27.5407 30.4606C26.2259 29.663 25.201 28.5293 24.5958 27.2029C23.9907 25.8765 23.8323 24.417 24.1408 23.0089C24.4494 21.6008 25.2109 20.3073 26.3291 19.2922C27.4473 18.277 28.872 17.5856 30.4231 17.3055C31.9741 17.0255 33.5817 17.1692 35.0428 17.7186C36.5038 18.268 37.7526 19.1984 38.6312 20.3922C39.5097 21.5859 39.9787 22.9893 39.9787 24.425C39.976 26.3495 39.1328 28.1944 37.6339 29.5552C36.1349 30.916 34.1027 31.6816 31.9829 31.684Z" fill="black"/>
</svg>
